# xmcd CD database file
#
# Track frame offsets:
#	150
#	25957
#	50946
#	76632
#	94052
#	119657
#	143525
#	160588
#	189613
#	214347
#	247844
#
# Disc length: 3808 seconds
#
# Revision: 1
# Processed by: cddbd v1.5PL3 Copyright (c) Steve Scherf et al.
# Submitted via: CDex 1.51
#
DISCID=900ede0b
DTITLE=Steve Smith/Michael Zilber - Reimagined, Vol 1 Jazz Standarts
DYEAR=1900
DGENRE=Jazz
TTITLE0=All Blues
TTITLE1=Mood Indigo
TTITLE2=Freedom Jazz Dance
TTITLE3=Somewhere
TTITLE4=Impressions
TTITLE5=Manteca
TTITLE6=Solar
TTITLE7=Giant Steps
TTITLE8=How Long Has It Been Going On ?
TTITLE9=Caravan
TTITLE10=Countdown
EXTD=
EXTT0=
EXTT1=
EXTT2=
EXTT3=
EXTT4=
EXTT5=
EXTT6=
EXTT7=
EXTT8=
EXTT9=
EXTT10=
PLAYORDER=
